<svg id="Capa_1" data-name="Capa 1" xmlns="http://www.w3.org/2000/svg" viewBox="0 0 203 103"><rect x="1.5" y="1.5" width="200" height="100" rx="12" style="fill:#fff;stroke:#211915;stroke-miterlimit:10;stroke-width:3px"/><path d="M107.18,47.19l4.16-10.52,4.49,2.19L117,36.21a6.34,6.34,0,0,1-.5-4.21c-4.83,0-9-3.23-13-7a29.42,29.42,0,0,1,9.66-6.65l-1.9-3.13-11.6.2,0-2.85,13.14-.14,3.21,5.31c5.24.19,8.11,2.89,6.83,10a5.87,5.87,0,0,1,5,3.93c5.52-4,18.74-1.72,17.54,5.79-.63,3.57-3.18,5.24-6.73,5.9a16.49,16.49,0,0,1-8.72-.74A14.81,14.81,0,0,1,125,38.7a6.55,6.55,0,0,1-6.09-.22l-1.49,4.22-4.58-2.38-3.05,8.38A4.69,4.69,0,0,0,107.18,47.19Zm33.42-7.45c3-1.7,2.93-4.45-.14-6.14a12.53,12.53,0,0,0-11,0c-3,1.7-2.93,4.45.14,6.14A12.57,12.57,0,0,0,140.6,39.74Zm-15.35-6.63a3.13,3.13,0,1,0-2.65,3.53A3.12,3.12,0,0,0,125.25,33.11Zm-4.87-8.28c-.61-7.17-7.43-4.33-12.92.1C111.8,29.16,120.38,32.33,120.38,24.83Zm-4.13,1.1-2.85,0,0-2.85,2.85,0Z" transform="translate(1.5 1.5)" style="fill:#211915;fill-rule:evenodd"/><path d="M38.94,30.21v2.16H41a2.52,2.52,0,0,1-.83,1.29,2.13,2.13,0,0,1-1.35.41,2.29,2.29,0,0,1-1.23-.33,2.47,2.47,0,0,1-.9-1.14,5.83,5.83,0,0,1-.35-2.13,4.79,4.79,0,0,1,.35-1.91,2.52,2.52,0,0,1,.9-1.13,2.19,2.19,0,0,1,1.25-.37,2,2,0,0,1,1.36.41,2.12,2.12,0,0,1,.69,1.27l0,.15h2.79l0-.15a4,4,0,0,0-.42-1.47,3.53,3.53,0,0,0-.93-1.18,4.31,4.31,0,0,0-1.47-.79,6.34,6.34,0,0,0-2-.29,6,6,0,0,0-2.09.36,4.84,4.84,0,0,0-2.91,2.83,6.52,6.52,0,0,0-.43,2.44A7.39,7.39,0,0,0,33.8,33a4.8,4.8,0,0,0,1,1.71,4.12,4.12,0,0,0,1.53,1,5.34,5.34,0,0,0,2,.35A5,5,0,0,0,39.71,36a2.57,2.57,0,0,0,1-.53l.46-1.17.26,1.64h2.17V30.21Z" transform="translate(1.5 1.5)" style="fill:#211915"/><path d="M53.91,33.3a5,5,0,0,0-.26-1.13,2.21,2.21,0,0,0-.52-.83,2.39,2.39,0,0,0-.89-.54,3.17,3.17,0,0,0,1.61-1,2.62,2.62,0,0,0,.54-1.68,3.14,3.14,0,0,0-.24-1.21,2.22,2.22,0,0,0-.63-.84,3.18,3.18,0,0,0-.92-.52,5.69,5.69,0,0,0-1.1-.26l-.54,0-.53,0H45.59V35.9h2.78V31.84h1.5a1.11,1.11,0,0,1,.87.53,2.88,2.88,0,0,1,.44,1.37,10.78,10.78,0,0,0,.19,1.07c.09.34.19.69.31,1.07h3a3.75,3.75,0,0,1-.36-.69,5.55,5.55,0,0,1-.26-.84A7.2,7.2,0,0,1,53.91,33.3Zm-5.54-3.46V27.39h1.49l.33,0a1.83,1.83,0,0,1,.65.14,1,1,0,0,1,.47.37,1.25,1.25,0,0,1,.17.7,1.18,1.18,0,0,1-.2.69,1.07,1.07,0,0,1-.49.37,2.42,2.42,0,0,1-.67.14l-.34,0H48.37Z" transform="translate(1.5 1.5)" style="fill:#211915"/><path d="M65.42,25.23H62.64v6.49c0,.14,0,.26,0,.36a2.35,2.35,0,0,1,0,.27,1.83,1.83,0,0,1-.54,1.28,2,2,0,0,1-1.39.44,2,2,0,0,1-1.4-.44,1.83,1.83,0,0,1-.54-1.28,2.35,2.35,0,0,1,0-.27V25.23H56V31.7c0,.15,0,.3,0,.46s0,.34,0,.55A3.82,3.82,0,0,0,56.32,34a3.2,3.2,0,0,0,.83,1.08,4,4,0,0,0,1.43.75,8.05,8.05,0,0,0,4.21,0,4,4,0,0,0,1.43-.75A3.07,3.07,0,0,0,65.05,34a3.82,3.82,0,0,0,.32-1.29c0-.21,0-.39,0-.55s0-.31,0-.46V25.23Z" transform="translate(1.5 1.5)" style="fill:#211915"/><path d="M72.93,25.3l-.54,0-.53,0H67.24V35.9H70V32.16h1.84l.53,0,.54-.05a4,4,0,0,0,1.12-.31,3.4,3.4,0,0,0,.94-.66,3.29,3.29,0,0,0,.65-1,4.15,4.15,0,0,0,0-2.78,3.13,3.13,0,0,0-.65-1,3.2,3.2,0,0,0-.94-.66A3.68,3.68,0,0,0,72.93,25.3ZM71.85,30H70v-2.6h1.49l.34,0a1.23,1.23,0,0,1,.83.36,1.56,1.56,0,0,1,0,1.84A1.19,1.19,0,0,1,71.85,30Z" transform="translate(1.5 1.5)" style="fill:#211915"/><path d="M82.26,25a6,6,0,0,0-2.89.68,4.52,4.52,0,0,0-1.89,1.91,6.78,6.78,0,0,0,0,5.92,4.58,4.58,0,0,0,1.89,1.91,6.48,6.48,0,0,0,5.78,0A4.58,4.58,0,0,0,87,33.52a6.78,6.78,0,0,0,0-5.92,4.52,4.52,0,0,0-1.89-1.91A6,6,0,0,0,82.26,25Zm0,9.06a2.38,2.38,0,0,1-1.39-.41,2.54,2.54,0,0,1-.9-1.18,5.92,5.92,0,0,1,0-3.84,2.54,2.54,0,0,1,.9-1.18,2.62,2.62,0,0,1,2.78,0,2.54,2.54,0,0,1,.9,1.18,4.94,4.94,0,0,1,.32,1.92,5,5,0,0,1-.32,1.92,2.54,2.54,0,0,1-.9,1.18A2.38,2.38,0,0,1,82.26,34.07Z" transform="translate(1.5 1.5)" style="fill:#211915"/><path d="M41.14,64.39l2.52,7.76h8.5L41.36,42.23H31.82L21,72.15H29.3l2.52-7.76ZM36.5,49.12l2.78,9.2H33.73Z" transform="translate(1.5 1.5)" style="fill:#559d3f"/><path d="M61.49,40.27h-7.8V64c0,.85,0,1.6,0,2.25s0,1.27.07,1.87a4.39,4.39,0,0,0,1.62,3.41,7,7,0,0,0,4.19,1.1c.86,0,1.66,0,2.39-.07s1.46-.09,2.17-.15V67.08a7.72,7.72,0,0,1-1.54,0,1.26,1.26,0,0,1-.75-.36,1.27,1.27,0,0,1-.27-.72,7.59,7.59,0,0,1-.08-.87c0-.31,0-.73,0-1.25Z" transform="translate(1.5 1.5)" style="fill:#559d3f"/><path d="M75.9,47.26a2.52,2.52,0,0,1,.78-1.63,3.38,3.38,0,0,1,1.77-.8,7.67,7.67,0,0,1,2.52,0V39.79a9.21,9.21,0,0,0-1.25-.25,8.58,8.58,0,0,0-1.35-.1,16.71,16.71,0,0,0-5.77.86,6.79,6.79,0,0,0-3.28,2.42,7.49,7.49,0,0,0-1.23,3.75q0,.62,0,1.29c0,.46,0,.87,0,1.23v.17H65.58V54h2.47V72.15h7.8V54h4.73V49.16H75.85V49c0-.28,0-.57,0-.85s0-.58,0-.89Z" transform="translate(1.5 1.5)" style="fill:#559d3f"/><path d="M97.07,72.15h7.63c-.11-.84-.2-1.6-.26-2.27s-.11-1.28-.14-1.86,0-1.15,0-1.72V59.78c0-.71,0-1.4,0-2.06s-.06-1.29-.1-1.88A8.28,8.28,0,0,0,103,52.05a6.9,6.9,0,0,0-3.2-2.66,16.5,16.5,0,0,0-10-.43,10.55,10.55,0,0,0-3.4,1.65,7.66,7.66,0,0,0-3.17,6.27l7.37,0a3.7,3.7,0,0,1,.86-2.33,2.84,2.84,0,0,1,2.13-.83A3.26,3.26,0,0,1,95,54a2.49,2.49,0,0,1,.94.81,2.36,2.36,0,0,1,.4,1.09c0,.36.06.67.07.94s0,.51,0,.74v.35H95a21.15,21.15,0,0,0-6.74,1A9.43,9.43,0,0,0,84,61.63a6.55,6.55,0,0,0-1.51,4.27,6.93,6.93,0,0,0,.63,3A6.12,6.12,0,0,0,84.73,71a7.23,7.23,0,0,0,2.37,1.31,8.6,8.6,0,0,0,2.77.45,12.14,12.14,0,0,0,3-.39,10.22,10.22,0,0,0,2.68-1.18l1-2.42Zm-4-4.68a3.05,3.05,0,0,1-1.91-.56,2,2,0,0,1-.73-1.61,2.43,2.43,0,0,1,.78-1.85,4.4,4.4,0,0,1,2.12-1,11.61,11.61,0,0,1,3.13-.13v1.52a3.84,3.84,0,0,1-.53,2,3.36,3.36,0,0,1-1.29,1.2A3.44,3.44,0,0,1,93.08,67.47Z" transform="translate(1.5 1.5)" style="fill:#559d3f"/><path d="M119.84,48.39a13.83,13.83,0,0,0-4.78.82,11.23,11.23,0,0,0-3.87,2.41,11,11,0,0,0-2.59,3.9,14.41,14.41,0,0,0-.95,5.31,14,14,0,0,0,.89,5.08,10.27,10.27,0,0,0,6.16,6,13,13,0,0,0,4.62.79,14.64,14.64,0,0,0,5.66-1,9.79,9.79,0,0,0,4.09-3,10.52,10.52,0,0,0,2.05-5h-7.68a5.15,5.15,0,0,1-1.34,2.85,3.26,3.26,0,0,1-2.35,1,3.32,3.32,0,0,1-3-1.7,10.79,10.79,0,0,1-1.07-5.4,9.77,9.77,0,0,1,1-5,3.34,3.34,0,0,1,3-1.66,3.49,3.49,0,0,1,2.51.94,5.27,5.27,0,0,1,1.31,3.22H131a9.65,9.65,0,0,0-.88-3.67,9.22,9.22,0,0,0-2.24-3,10.32,10.32,0,0,0-3.48-2A13.89,13.89,0,0,0,119.84,48.39Z" transform="translate(1.5 1.5)" style="fill:#559d3f"/><path d="M148,72.15h7.62c-.11-.84-.2-1.6-.26-2.27s-.11-1.28-.13-1.86,0-1.15,0-1.72V59.78c0-.71,0-1.4,0-2.06s-.06-1.29-.1-1.88a8.28,8.28,0,0,0-1.17-3.79,6.8,6.8,0,0,0-3.2-2.66,16.5,16.5,0,0,0-10-.43,10.49,10.49,0,0,0-3.39,1.65,7.63,7.63,0,0,0-3.18,6.27l7.37,0a3.76,3.76,0,0,1,.86-2.33,2.84,2.84,0,0,1,2.13-.83A3.34,3.34,0,0,1,146,54a2.46,2.46,0,0,1,.93.81,2.36,2.36,0,0,1,.4,1.09c0,.36.07.67.08.94s0,.51,0,.74v.35h-1.48a21.19,21.19,0,0,0-6.74,1,9.54,9.54,0,0,0-4.29,2.74,6.54,6.54,0,0,0-1.5,4.27,6.93,6.93,0,0,0,.62,3A6.37,6.37,0,0,0,135.65,71,7.18,7.18,0,0,0,138,72.31a8.49,8.49,0,0,0,2.76.45,12.08,12.08,0,0,0,3.05-.39,10.22,10.22,0,0,0,2.68-1.18l.95-2.42Zm-4-4.68a3,3,0,0,1-1.9-.56,2,2,0,0,1-.74-1.61,2.43,2.43,0,0,1,.78-1.85,4.4,4.4,0,0,1,2.12-1,11.65,11.65,0,0,1,3.13-.13v1.52a3.84,3.84,0,0,1-.53,2,3.36,3.36,0,0,1-1.29,1.2A3.41,3.41,0,0,1,144,67.47Z" transform="translate(1.5 1.5)" style="fill:#559d3f"/><path d="M183.17,54.67A7,7,0,0,0,180.63,50,9,9,0,0,0,175,48.39a10.93,10.93,0,0,0-2.86.35,9,9,0,0,0-2.35,1l-2.08,2.86V49h-7.81V72.15h7.81V61.22a14.6,14.6,0,0,1,.53-4.29,5.23,5.23,0,0,1,1.43-2.47,3.14,3.14,0,0,1,2.12-.79,3.71,3.71,0,0,1,2.68.93,3.92,3.92,0,0,1,1.06,2.58c0,.6.06,1.18.07,1.75s0,1,0,1.42v11.8h7.81V59.05c0-.93,0-1.74,0-2.45S183.25,55.25,183.17,54.67Z" transform="translate(1.5 1.5)" style="fill:#559d3f"/><polygon points="21.03 77.88 17.3 89.22 184.85 77.88 21.03 77.88" style="fill:#211915;fill-rule:evenodd"/><path d="M140.12,48.37,135.61,26l-6,22a14.91,14.91,0,0,0-3.06-1.25l7.15-24.2a13.3,13.3,0,0,1,3.62-.07l5.57,24.68C142.08,47.46,141.11,47.85,140.12,48.37Z" transform="translate(1.5 1.5)" style="fill:#559d3f;fill-rule:evenodd"/><path d="M133.51,32.4l.75-2.73,2.3.08.59,2.76Z" transform="translate(1.5 1.5)" style="fill:#559d3f;stroke:#559d3f;stroke-miterlimit:10;fill-rule:evenodd"/></svg>