<svg id="Capa_1" data-name="Capa 1" xmlns="http://www.w3.org/2000/svg" xmlns:xlink="http://www.w3.org/1999/xlink" viewBox="0 0 1200 1200"><defs><linearGradient id="Linear_Gradient_1" x1="-90.94" y1="-382.02" x2="1612.1" y2="1535.39" gradientUnits="userSpaceOnUse"><stop offset="0" stop-color="#0052b3"/><stop offset="0.13" stop-color="#00367a"/><stop offset="0.25" stop-color="#0052b3"/><stop offset="0.38" stop-color="#00367a"/><stop offset="0.5" stop-color="#0052b3"/><stop offset="0.63" stop-color="#00367a"/><stop offset="0.75" stop-color="#0052b3"/><stop offset="0.88" stop-color="#00367a"/><stop offset="1" stop-color="#0052b3"/></linearGradient><linearGradient id="Linear_Gradient_1-2" x1="-246.31" y1="590.72" x2="1931.72" y2="1865.42" xlink:href="#Linear_Gradient_1"/></defs><rect width="1200" height="1200" style="fill:#4e5357"/><rect width="1200" height="791.78" style="fill:url(#Linear_Gradient_1)"/><path d="M138.05,775.66l-6.57-52.84c0-12.86,10.67-23.45,11.69-42.12.45-6.33.4-69.35.27-120.75a1.83,1.83,0,0,1-.33,0,36.66,36.66,0,0,1-3.69-.49c-.65-.08-1.29-.18-1.93-.32-1.16-.16-1.74-.27-2.33-.4-13.08-2.55-28-8.28-29.48-18.76-1.39-9.91-.16-21,4.69-24.33,0,0,14.47-23.53,6.73-44.69S105,442.05,104.39,422.52s.86-126,.86-126-1.34-16.16,12.17-22.54a88.75,88.75,0,0,1,33.52-8.14l39.17.21L479.83,629.92v-93h16.91l.27-47.27L481.28,469.7a.54.54,0,0,1-.13-.35l.45-32c-3.75-.41-6.67-4.45-6.67-9.36,0-5.19,3.27-9.4,7.32-9.4s7.34,4.21,7.34,9.4c0,4.94-3,9-6.78,9.36l-.46,31.83L497,487.74l.13-22.14a.65.65,0,0,1,.16-.43L510.06,452V406.52c-3.81-.35-6.81-4.4-6.81-9.35,0-5.2,3.3-9.41,7.35-9.41s7.31,4.21,7.31,9.41c0,4.9-2.95,8.92-6.67,9.35v45.71a.49.49,0,0,1-.16.4l-12.76,13.19-.13,23.42,17.44,22.16h1.8v25.51h7.8V511.4H527l17.45-22.16-.14-23.42-12.75-13.19a.61.61,0,0,1-.16-.4l-.22-32.82c-3.78-.41-6.72-4.45-6.72-9.38,0-5.17,3.27-9.38,7.31-9.38s7.32,4.21,7.32,9.38c0,4.93-3,9-6.73,9.38L532.6,452l12.75,13.18a.6.6,0,0,1,.16.43l.13,22.14,14.69-18.6-.51-64.87c-3.75-.4-6.73-4.45-6.73-9.38,0-5.17,3.27-9.38,7.32-9.38s7.31,4.21,7.31,9.38c0,4.93-2.94,9-6.72,9.38l.51,65.08a.55.55,0,0,1-.14.35l-15.73,19.94.3,47.27h14V775.66H497.6L197.83,412.87c0,4.23-.08,7.61-.13,9.83-.56,19.51-5,27.28-12.62,48.32-6.38,17.39,2.27,36.44,5.57,42.66h0a14.17,14.17,0,0,0,1.31,2.09c4.72,3.45,6.11,14.89,4.61,24.43-.7,4.61-4,8.34-9.3,11.58l-.11.08a17.06,17.06,0,0,1-2.06,1.15c-7.07,3.62-16.18,5.71-23.77,6.7v0c-.37,0-.75.08-1.07.11-.67.08-1.26.13-1.88.18,0,49.55,0,110,.65,120.69,1.18,18.65,11.2,29.32,11.2,42.18l-6,52.76Zm855.22,0L558.83,269l-.43,37.48c3.56.38,6.35,4.18,6.35,8.85,0,4.9-3.08,8.89-6.91,8.89s-6.94-4-6.94-8.89c0-4.67,2.84-8.5,6.4-8.85l.43-38.74-13.88-16-.08,16.8a.56.56,0,0,1-.19.4l-12.06,12.46-.1,10.75c3.51.4,6.27,4.2,6.27,8.81,0,4.93-3.11,8.9-6.92,8.9s-6.94-4-6.94-8.9c0-4.66,2.87-8.52,6.46-8.84l.11-10.93a.59.59,0,0,1,.19-.41l12-12.46.08-17.87L521.8,226.34v122a1.12,1.12,0,0,1-1.1,1.13,1.13,1.13,0,0,1-1.15-1.13V223.74L517.19,221v4.21H515.5L499,246.17l.14,22.13,12.06,12.46a.58.58,0,0,1,.13.41v43.22c3.54.4,6.32,4.2,6.32,8.84,0,4.9-3.11,8.9-6.91,8.9s-6.91-4-6.91-8.9c0-4.69,2.81-8.52,6.4-8.87v-43l-12.06-12.46a.58.58,0,0,1-.16-.4l-.13-20.93L484,265.17l.43,30.09c3.57.35,6.41,4.18,6.41,8.87,0,4.9-3.11,8.87-6.94,8.87s-6.92-4-6.92-8.87c0-4.66,2.79-8.47,6.33-8.87L482.89,265a.51.51,0,0,1,.11-.35l14.87-18.83-.27-47.33-34.38-36.06,138.8-.17,522.9,613.42ZM513.7,536.91V511.4h.43l-16-20.26-.24,45.77Zm31.06,0-.29-45.77-16,20.26H529v25.51ZM520,534.36V381.17a1.18,1.18,0,0,1,1.18-1.21,1.2,1.2,0,0,1,1.18,1.21V534.36a1.2,1.2,0,0,1-1.18,1.21A1.18,1.18,0,0,1,520,534.36Zm-21-290,15.09-19.13h-.43V217l-14.92-17.2Z" style="fill:#fff;fill-rule:evenodd"/><path d="M162.44,824.73a3,3,0,0,1,2.74,1.28l49.06,67.41L261.64,826a2.73,2.73,0,0,1,2.54-1.28h25.2a1.45,1.45,0,0,1,1.63,1.6l.06,5.79a1.38,1.38,0,0,1-1.57,1.59H276.82l1.33,99.66h12.68a1.44,1.44,0,0,1,1.62,1.6l.08,5.79a1.4,1.4,0,0,1-1.58,1.6H253.24a1.43,1.43,0,0,1-1.62-1.6l-.08-5.79a1.39,1.39,0,0,1,1.58-1.6h13.79l-1.25-94.52-44.89,63.23a3.3,3.3,0,0,1-2.56,1.28h-7.39a3.53,3.53,0,0,1-2.73-1.28L161.5,838.69l1.26,94.68H176.4c1.18,0,1.78.54,1.8,1.6l.08,5.79c0,1.06-.58,1.6-1.76,1.6H139a1.45,1.45,0,0,1-1.64-1.6l-.08-5.79a1.41,1.41,0,0,1,1.6-1.6h12.52L150,833.71H137.52a1.42,1.42,0,0,1-1.61-1.59l-.08-5.79a1.39,1.39,0,0,1,1.57-1.6Z" style="fill:#fff"/><path d="M323,933.37l-1.34-99.66h-12.5c-1.17,0-1.77-.53-1.79-1.59l-.08-5.79c0-1.06.58-1.6,1.75-1.6h77.66a1.45,1.45,0,0,1,1.64,1.6l.39,29.53a1.4,1.4,0,0,1-1.59,1.6h-6.25a1.44,1.44,0,0,1-1.64-1.6L378.93,835h-46l.55,42.21h31.29L364.59,866a1.39,1.39,0,0,1,1.58-1.6h5.77a1.45,1.45,0,0,1,1.64,1.6l.44,32.75a1.41,1.41,0,0,1-1.6,1.6h-5.77a1.43,1.43,0,0,1-1.62-1.6l-.16-11.24H333.58l.6,44.62h48.15l-.28-20.86c0-1.08.55-1.62,1.73-1.62h6.27a1.45,1.45,0,0,1,1.62,1.62l.4,29.53a1.4,1.4,0,0,1-1.58,1.6H310.56c-1.18,0-1.78-.54-1.78-1.6l-.07-5.79c0-1.06.55-1.6,1.73-1.6Z" style="fill:#fff"/><path d="M414,826.33a1.39,1.39,0,0,1,1.58-1.6h38.2a1.44,1.44,0,0,1,1.62,1.6l.08,5.79a1.39,1.39,0,0,1-1.58,1.59H440.43L465,870.3l23.42-36.59H474.93c-1.17,0-1.77-.53-1.79-1.59l-.08-5.79c0-1.06.58-1.6,1.75-1.6h38c1.18,0,1.78.54,1.8,1.6l.08,5.79c0,1.06-.58,1.59-1.76,1.59h-11.7l-30.37,46.23,36.5,53.43h11.56a1.43,1.43,0,0,1,1.62,1.6l.08,5.79a1.4,1.4,0,0,1-1.58,1.6h-38.2a1.43,1.43,0,0,1-1.61-1.6l-.08-5.79a1.39,1.39,0,0,1,1.57-1.6h13.64l-29.31-44-28.13,44h13.63c1.18,0,1.78.54,1.8,1.6l.06,5.79c0,1.06-.56,1.6-1.74,1.6h-38c-1.18,0-1.76-.54-1.78-1.6L410.8,935c0-1.06.56-1.6,1.74-1.6h11.4L459,879.94l-31.59-46.23H415.71a1.44,1.44,0,0,1-1.64-1.59Z" style="fill:#fff"/><path d="M600.17,944.59a59.17,59.17,0,0,1-23.82-4.81,62.81,62.81,0,0,1-32.85-32.41,61.25,61.25,0,0,1-.64-47.58,60.1,60.1,0,0,1,32-32.5,58.6,58.6,0,0,1,23.68-4.82,59.55,59.55,0,0,1,23.82,4.82,62.46,62.46,0,0,1,32.85,32.5,59.86,59.86,0,0,1,5.13,23.82,59,59,0,0,1-4.49,23.76,60.42,60.42,0,0,1-32,32.41A58.3,58.3,0,0,1,600.17,944.59Zm-50.58-61a50.19,50.19,0,0,0,4.2,19.67,51.47,51.47,0,0,0,26.83,26.88,47.81,47.81,0,0,0,19.41,4,47,47,0,0,0,19.27-4,49.34,49.34,0,0,0,26.12-26.88,48.94,48.94,0,0,0,3.67-19.67A49.59,49.59,0,0,0,644.9,864,53.18,53.18,0,0,0,634,847.83a51.48,51.48,0,0,0-16-10.9,47.49,47.49,0,0,0-19.39-4,46.82,46.82,0,0,0-19.29,4,49.54,49.54,0,0,0-15.65,10.9A51.15,51.15,0,0,0,553.27,864,49.39,49.39,0,0,0,549.59,883.61Z" style="fill:#fff"/><path d="M706.78,824.73a3,3,0,0,1,2.75,1.28l49,67.41L806,826a2.76,2.76,0,0,1,2.56-1.28h25.18a1.45,1.45,0,0,1,1.64,1.6l.08,5.79a1.4,1.4,0,0,1-1.6,1.59H821.17l1.32,99.66h12.68a1.42,1.42,0,0,1,1.61,1.6l.08,5.79a1.38,1.38,0,0,1-1.57,1.6H797.57a1.44,1.44,0,0,1-1.62-1.6l-.08-5.79a1.4,1.4,0,0,1,1.58-1.6h13.82L810,838.85,765.1,902.08a3.27,3.27,0,0,1-2.55,1.28h-7.37a3.54,3.54,0,0,1-2.76-1.28l-46.58-63.39,1.28,94.68h13.63c1.18,0,1.76.54,1.78,1.6l.08,5.79c0,1.06-.56,1.6-1.74,1.6H683.31a1.42,1.42,0,0,1-1.61-1.6l-.08-5.79a1.39,1.39,0,0,1,1.57-1.6h12.52l-1.33-99.66H681.86a1.44,1.44,0,0,1-1.62-1.59l-.08-5.79a1.4,1.4,0,0,1,1.58-1.6Z" style="fill:#fff"/><path d="M867.29,933.37,866,833.71H853.46q-1.77,0-1.8-1.59l-.06-5.79c0-1.06.56-1.6,1.74-1.6H931a1.44,1.44,0,0,1,1.62,1.6l.4,29.53a1.39,1.39,0,0,1-1.58,1.6h-6.27a1.43,1.43,0,0,1-1.62-1.6L923.28,835H877.22l.56,42.21h31.31L908.93,866a1.39,1.39,0,0,1,1.57-1.6h5.8a1.44,1.44,0,0,1,1.61,1.6l.44,32.75a1.4,1.4,0,0,1-1.58,1.6H911a1.44,1.44,0,0,1-1.61-1.6l-.16-11.24H877.92l.6,44.62h48.14l-.28-20.86c0-1.08.58-1.62,1.76-1.62h6.25a1.43,1.43,0,0,1,1.61,1.62l.4,29.53a1.4,1.4,0,0,1-1.58,1.6H854.9c-1.18,0-1.76-.54-1.78-1.6L853,935c0-1.06.56-1.6,1.74-1.6Z" style="fill:#fff"/><path d="M958.35,826.33a1.39,1.39,0,0,1,1.57-1.6h38.2a1.43,1.43,0,0,1,1.62,1.6l.08,5.79a1.38,1.38,0,0,1-1.58,1.59H984.76l24.56,36.59,23.43-36.59h-13.48q-1.77,0-1.8-1.59l-.06-5.79c0-1.06.56-1.6,1.74-1.6h38c1.17,0,1.75.54,1.77,1.6l.08,5.79c0,1.06-.56,1.59-1.73,1.59h-11.73l-30.35,46.23,36.5,53.43h11.55a1.45,1.45,0,0,1,1.63,1.6l.08,5.79a1.41,1.41,0,0,1-1.59,1.6h-38.2a1.44,1.44,0,0,1-1.62-1.6l-.08-5.79a1.4,1.4,0,0,1,1.58-1.6h13.66l-29.32-44-28.15,44h13.64c1.18,0,1.77.54,1.79,1.6l.08,5.79c0,1.06-.58,1.6-1.75,1.6H957c-1.18,0-1.78-.54-1.8-1.6l-.08-5.79c0-1.06.58-1.6,1.76-1.6h11.38l35.08-53.43-31.59-46.23H960a1.42,1.42,0,0,1-1.61-1.59Z" style="fill:#fff"/><rect y="972.05" width="1200" height="227.95" style="fill:url(#Linear_Gradient_1-2)"/></svg>